<svg xmlns="http://www.w3.org/2000/svg" xmlns:cc="http://web.resource.org/cc/" xmlns:ns1="http://sozi.baierouge.fr" xmlns:svg="http://www.w3.org/2000/svg" xmlns:xlink="http://www.w3.org/1999/xlink" id="svg9493" viewBox="0 0 50 50"><defs id="defs9495"><linearGradient id="linearGradient6686" x1="23.403" x2="23.39" y1="44.067" y2="42.884" gradientUnits="userSpaceOnUse"><stop id="stop6508" style="stop-color:#fff;stop-opacity:0" offset="0"/><stop id="stop6510" style="stop-color:#fff;stop-opacity:.87451" offset="1"/></linearGradient><linearGradient id="linearGradient6684" x1="23.214" x2="23.201" y1="42.755" y2="43.893" gradientUnits="userSpaceOnUse"><stop id="stop6654" style="stop-color:#da4615" offset="0"/><stop id="stop6656" style="stop-color:#ffc06d" offset="1"/></linearGradient><linearGradient id="linearGradient6682" x1="23.35" x2="23.441" y1="42.768" y2="43.711" gradientUnits="userSpaceOnUse"><stop id="stop5758" style="stop-color:#828282" offset="0"/><stop id="stop5760" style="stop-color:#929292;stop-opacity:.35294" offset="1"/></linearGradient><linearGradient id="linearGradient6680" x1="23.193" x2="23.2" y1="42.429" y2="44" gradientUnits="userSpaceOnUse"><stop id="stop5744" style="stop-color:#adadad" offset="0"/><stop id="stop5746" style="stop-color:#f0f0f0" offset="1"/></linearGradient></defs><g id="layer1"><g id="g9467" transform="matrix(31.25 0 0 31.25 -625 -1400)"><path id="path6658" style="fill:url(#linearGradient6680)" d="m24 43.2c0 0.442-0.358 0.8-0.8 0.8s-0.8-0.358-0.8-0.8 0.358-0.8 0.8-0.8 0.8 0.358 0.8 0.8z" transform="translate(-2.4 2.4)"/><path id="path6660" style="fill:url(#linearGradient6682)" d="m23.906 43.296c0 0.329-0.267 0.597-0.596 0.597s-0.596-0.268-0.596-0.597 0.267-0.596 0.596-0.596 0.596 0.267 0.596 0.596z" transform="matrix(1.0825 0 0 1.0825 -4.4324 -1.267)"/><path id="path6662" style="fill:url(#linearGradient6684)" d="m23.906 43.296c0 0.329-0.267 0.597-0.596 0.597s-0.596-0.268-0.596-0.597 0.267-0.596 0.596-0.596 0.596 0.267 0.596 0.596z" transform="matrix(.96907 0 0 .96907 -1.789 3.6429)"/><path id="path6664" style="fill:url(#linearGradient6686)" d="m23.906 43.296c0 0.329-0.267 0.597-0.596 0.597s-0.596-0.268-0.596-0.597 0.267-0.596 0.596-0.596 0.596 0.267 0.596 0.596z" transform="matrix(.77320 0 0 .59794 2.7761 19.519)"/></g></g><metadata/></svg>