<svg xmlns="http://www.w3.org/2000/svg" xmlns:cc="http://web.resource.org/cc/" xmlns:ns1="http://sozi.baierouge.fr" xmlns:svg="http://www.w3.org/2000/svg" xmlns:xlink="http://www.w3.org/1999/xlink" id="svg9493" viewBox="0 0 50 50"><defs id="defs9495"><linearGradient id="linearGradient7570" x1="23.403" x2="23.39" y1="44.067" y2="42.884" gradientUnits="userSpaceOnUse"><stop id="stop6508" style="stop-color:#fff;stop-opacity:0" offset="0"/><stop id="stop6510" style="stop-color:#fff;stop-opacity:.87451" offset="1"/></linearGradient><linearGradient id="linearGradient7568" x1="23.214" x2="23.201" y1="42.755" y2="43.893" gradientUnits="userSpaceOnUse"><stop id="stop7538" style="stop-color:#870083" offset="0"/><stop id="stop7540" style="stop-color:#fe9aff" offset="1"/></linearGradient><linearGradient id="linearGradient7566" x1="23.35" x2="23.441" y1="42.768" y2="43.711" gradientUnits="userSpaceOnUse"><stop id="stop5758" style="stop-color:#828282" offset="0"/><stop id="stop5760" style="stop-color:#929292;stop-opacity:.35294" offset="1"/></linearGradient><linearGradient id="linearGradient7564" x1="23.193" x2="23.2" y1="42.429" y2="44" gradientUnits="userSpaceOnUse"><stop id="stop5744" style="stop-color:#adadad" offset="0"/><stop id="stop5746" style="stop-color:#f0f0f0" offset="1"/></linearGradient></defs><g id="layer1"><g id="g9441" transform="matrix(31.25 0 0 31.25 -700 -1325)"><path id="path7542" style="fill:url(#linearGradient7564)" d="m24 43.2c0 0.442-0.358 0.8-0.8 0.8s-0.8-0.358-0.8-0.8 0.358-0.8 0.8-0.8 0.8 0.358 0.8 0.8z"/><path id="path7544" style="fill:url(#linearGradient7566)" d="m23.906 43.296c0 0.329-0.267 0.597-0.596 0.597s-0.596-0.268-0.596-0.597 0.267-0.596 0.596-0.596 0.596 0.267 0.596 0.596z" transform="matrix(1.0825 0 0 1.0825 -2.0324 -3.667)"/><path id="path7546" style="fill:url(#linearGradient7568)" d="m23.906 43.296c0 0.329-0.267 0.597-0.596 0.597s-0.596-0.268-0.596-0.597 0.267-0.596 0.596-0.596 0.596 0.267 0.596 0.596z" transform="matrix(.96907 0 0 .96907 0.611 1.2429)"/><path id="path7548" style="fill:url(#linearGradient7570)" d="m23.906 43.296c0 0.329-0.267 0.597-0.596 0.597s-0.596-0.268-0.596-0.597 0.267-0.596 0.596-0.596 0.596 0.267 0.596 0.596z" transform="matrix(.77320 0 0 .59794 5.1761 17.119)"/></g></g><metadata/></svg>