<svg xmlns="http://www.w3.org/2000/svg" xmlns:cc="http://web.resource.org/cc/" xmlns:ns1="http://sozi.baierouge.fr" xmlns:svg="http://www.w3.org/2000/svg" xmlns:xlink="http://www.w3.org/1999/xlink" id="svg9493" viewBox="0 0 50 50"><defs id="defs9495"><linearGradient id="linearGradient1336" x1="23.41" x2="23.394" y1="44.486" y2="43.027" gradientTransform="matrix(24.162 0 0 18.686 -538.25 -790.04)" gradientUnits="userSpaceOnUse"><stop id="stop6508" style="stop-color:#fff;stop-opacity:0" offset="0"/><stop id="stop6510" style="stop-color:#fff;stop-opacity:.87451" offset="1"/></linearGradient><linearGradient id="linearGradient1339" x1="23.214" x2="23.201" y1="42.755" y2="43.893" gradientTransform="matrix(30.284 0 0 30.284 -680.91 -1286.2)" gradientUnits="userSpaceOnUse"><stop id="stop7502" style="stop-color:#d2cd00" offset="0"/><stop id="stop7504" style="stop-color:#fffe8f" offset="1"/></linearGradient><linearGradient id="linearGradient1342" x1="23.35" x2="23.441" y1="42.768" y2="43.711" gradientTransform="matrix(33.827 0 0 33.827 -763.51 -1439.6)" gradientUnits="userSpaceOnUse"><stop id="stop5758" style="stop-color:#828282" offset="0"/><stop id="stop5760" style="stop-color:#929292;stop-opacity:.35294" offset="1"/></linearGradient><linearGradient id="linearGradient1345" x1="23.193" x2="23.2" y1="42.429" y2="44" gradientTransform="matrix(31.25 0 0 31.25 -700 -1325)" gradientUnits="userSpaceOnUse"><stop id="stop5744" style="stop-color:#adadad" offset="0"/><stop id="stop5746" style="stop-color:#f0f0f0" offset="1"/></linearGradient></defs><g id="layer1"><g id="g1347"><path id="path7506" style="fill:url(#linearGradient1345)" d="m50 25c0 13.8-11.2 25-25 25s-25-11.2-25-25c0.00003125-13.8 11.2-25 25-25 13.8 0.00003125 25 11.2 25 25z"/><path id="path7508" style="fill:url(#linearGradient1342)" d="m45.176 25c0 11.137-9.039 20.176-20.176 20.176s-20.176-9.039-20.176-20.176c0.0004-11.137 9.039-20.176 20.176-20.176 11.137 0.0005 20.176 9.039 20.176 20.176z"/><path id="path7510" style="fill:url(#linearGradient1339)" d="m43.062 25c0 9.97-8.092 18.062-18.062 18.062s-18.062-8.092-18.062-18.062c0.0001-9.971 8.092-18.062 18.062-18.062 9.97-0.0004 18.062 8.091 18.062 18.062z"/><path id="path7512" style="fill:url(#linearGradient1336)" d="m39.388 18.975c0 6.152-6.456 11.145-14.411 11.145s-14.411-4.993-14.411-11.145 6.456-11.144 14.411-11.144c7.955-0.0005 14.411 4.992 14.411 11.144z"/></g></g><metadata/></svg>