<svg xmlns="http://www.w3.org/2000/svg" xmlns:svg="http://www.w3.org/2000/svg" id="svg2" width="40" height="40" enable-background="new 0 0 76 76" version="1.1" viewBox="0 0 40 40" xml:space="preserve"><metadata id="metadata10"/><path id="path4" d="m 20,15.846114 c 2.294143,0 4.153886,1.859743 4.153886,4.153886 0,2.294143 -1.859743,4.1538 -4.153886,4.1538 -2.294143,0 -4.1538,-1.859657 -4.1538,-4.1538 0,-2.294143 1.859743,-4.153886 4.1538,-4.153886 z m 0,-6.923057 c 9.692314,0 18,6.923057 18,11.076943 0,4.1538 -8.307686,11.076943 -18,11.076943 C 10.307686,31.076943 2,24.1538 2,20 2,15.846114 10.307686,8.923057 20,8.923057 Z m 0,3.461572 c -4.205829,0 -7.615372,3.409543 -7.615372,7.615371 0,4.205829 3.409543,7.615372 7.615372,7.615372 4.205829,0 7.615372,-3.409543 7.615372,-7.615372 0,-4.205828 -3.409543,-7.615371 -7.615372,-7.615371 z" style="fill:#fff;fill-opacity:1;stroke-width:.2;stroke-linejoin:round"/></svg>